<svg width="141" height="15" viewBox="0 0 141 15" fill="none" xmlns="http://www.w3.org/2000/svg">
<path d="M44.6942 7.58491H51.0526L50.5432 10.0377H44.2036L44.6942 7.58491ZM43.4866 14.8491H40.4111L43.0526 1.64151H53.0338L52.5243 4.09434H45.6187L43.4866 14.8491Z" fill="white"/>
<path d="M52.2729 14.8491L54.2917 4.69811H57.2163L55.1974 14.8491H52.2729ZM56.254 3.28302C55.7383 3.28302 55.3232 3.13836 55.0087 2.84906C54.6942 2.54717 54.537 2.18239 54.537 1.75472C54.537 1.25157 54.7131 0.836478 55.0653 0.509434C55.4301 0.169811 55.9018 0 56.4804 0C56.9961 0 57.4112 0.144654 57.7257 0.433962C58.0527 0.710692 58.2163 1.0566 58.2163 1.4717C58.2163 2.01258 58.0339 2.45283 57.6691 2.79245C57.3169 3.1195 56.8452 3.28302 56.254 3.28302Z" fill="white"/>
<path d="M57.9296 14.8491L59.9484 4.69811H62.7409L62.156 7.58491L61.8918 6.75472C62.3446 5.93711 62.9358 5.36478 63.6654 5.03774C64.395 4.71069 65.2692 4.54717 66.288 4.54717L65.7597 7.26415C65.634 7.25157 65.5145 7.24528 65.4013 7.24528C65.3006 7.2327 65.1937 7.22642 65.0805 7.22642C64.2126 7.22642 63.5019 7.44025 62.9484 7.86793C62.4075 8.2956 62.0428 8.98742 61.8541 9.9434L60.873 14.8491H57.9296Z" fill="white"/>
<path d="M69.7534 15C68.8603 15 68.0176 14.8994 67.2251 14.6981C66.4452 14.4969 65.8415 14.2453 65.4138 13.9434L66.5459 11.8113C66.9861 12.1006 67.5207 12.3333 68.1496 12.5094C68.7911 12.6855 69.4326 12.7736 70.0742 12.7736C70.766 12.7736 71.2691 12.6855 71.5836 12.5094C71.8981 12.3333 72.0553 12.0943 72.0553 11.7925C72.0553 11.5535 71.9232 11.3774 71.6591 11.2642C71.3949 11.1384 71.0616 11.0377 70.6591 10.9623C70.2565 10.8868 69.8226 10.7987 69.3572 10.6981C68.9043 10.5975 68.4704 10.4591 68.0553 10.283C67.6528 10.0943 67.3194 9.83019 67.0553 9.49057C66.8037 9.13836 66.6779 8.67925 66.6779 8.11321C66.6779 7.34591 66.8918 6.69811 67.3194 6.16981C67.7597 5.64151 68.3635 5.23899 69.1308 4.96226C69.9106 4.68553 70.7911 4.54717 71.7723 4.54717C72.4767 4.54717 73.1622 4.62264 73.8289 4.77358C74.4955 4.92453 75.0616 5.13208 75.527 5.39623L74.4704 7.54717C73.9924 7.24528 73.4893 7.04403 72.9609 6.9434C72.4452 6.83019 71.9484 6.77359 71.4704 6.77359C70.7786 6.77359 70.2754 6.87421 69.9609 7.07547C69.6591 7.26415 69.5081 7.49686 69.5081 7.77358C69.5081 8.01258 69.6339 8.20126 69.8855 8.33962C70.1496 8.46541 70.483 8.57233 70.8855 8.66038C71.288 8.73585 71.722 8.8239 72.1874 8.92453C72.6528 9.01258 73.0867 9.15094 73.4892 9.33962C73.8918 9.51572 74.2188 9.77358 74.4704 10.1132C74.7345 10.4403 74.8666 10.8868 74.8666 11.4528C74.8666 12.2201 74.6402 12.8742 74.1874 13.4151C73.7471 13.9434 73.1433 14.3396 72.376 14.6038C71.6087 14.8679 70.7345 15 69.7534 15Z" fill="white"/>
<path d="M80.2109 15C79.4814 15 78.8587 14.8553 78.343 14.566C77.8273 14.2642 77.4562 13.8365 77.2298 13.283C77.016 12.717 76.9845 12.0503 77.1355 11.283L78.8902 2.45283H81.8336L80.0789 11.2642C80.0034 11.6918 80.0474 12.0314 80.2109 12.283C80.3745 12.5346 80.6764 12.6604 81.1166 12.6604C81.3179 12.6604 81.5191 12.6289 81.7204 12.566C81.9342 12.5031 82.1292 12.4151 82.3053 12.3019L82.7392 14.3962C82.3745 14.6226 81.972 14.7799 81.5317 14.8679C81.0914 14.956 80.6512 15 80.2109 15ZM76.3808 7.18868L76.8336 4.92453H83.8713L83.4185 7.18868H76.3808Z" fill="white"/>
<path d="M84.528 10.717L84.9997 8.35849H90.3393L89.8676 10.717H84.528Z" fill="white"/>
<path d="M96.9149 15C95.8709 15 94.959 14.8113 94.1791 14.434C93.4118 14.0566 92.8143 13.5283 92.3866 12.8491C91.959 12.1698 91.7451 11.3711 91.7451 10.4528C91.7451 9.32075 92.0093 8.31447 92.5376 7.43396C93.0659 6.54088 93.7955 5.83648 94.7263 5.32076C95.6571 4.80503 96.7263 4.54717 97.9338 4.54717C99.0156 4.54717 99.9527 4.77359 100.745 5.22641C101.538 5.66667 102.122 6.2956 102.5 7.11321L100.009 8.35849C99.7955 7.8805 99.4936 7.53459 99.1036 7.32076C98.7263 7.09434 98.2734 6.98113 97.7451 6.98113C97.1665 6.98113 96.6508 7.12579 96.198 7.41509C95.7451 7.69182 95.3866 8.08176 95.1225 8.58491C94.8583 9.07547 94.7263 9.6478 94.7263 10.3019C94.7263 10.9937 94.9275 11.5472 95.33 11.9623C95.7451 12.3648 96.33 12.566 97.0848 12.566C97.6005 12.566 98.0722 12.4591 98.4999 12.2453C98.9275 12.0189 99.286 11.673 99.5753 11.2075L101.745 12.566C101.267 13.3333 100.6 13.9308 99.7451 14.3585C98.9024 14.7862 97.959 15 96.9149 15Z" fill="white"/>
<path d="M102.649 14.8491L105.441 0.849057H108.385L105.592 14.8491H102.649Z" fill="white"/>
<path d="M112.909 15C112.129 15 111.406 14.8239 110.739 14.4717C110.072 14.1069 109.538 13.5849 109.135 12.9057C108.733 12.2264 108.531 11.4088 108.531 10.4528C108.531 9.59748 108.67 8.81132 108.946 8.09434C109.236 7.37736 109.638 6.75472 110.154 6.22642C110.67 5.69811 111.267 5.28931 111.946 5C112.626 4.69811 113.355 4.54717 114.135 4.54717C114.978 4.54717 115.701 4.7044 116.305 5.01887C116.909 5.33333 117.355 5.8239 117.645 6.49057C117.947 7.14465 118.053 7.99371 117.965 9.03774C117.902 10.2327 117.657 11.283 117.23 12.1887C116.802 13.0818 116.223 13.7736 115.494 14.2642C114.777 14.7547 113.915 15 112.909 15ZM113.814 12.566C114.393 12.566 114.902 12.4277 115.343 12.1509C115.796 11.8616 116.148 11.4717 116.399 10.9811C116.663 10.478 116.796 9.89308 116.796 9.22641C116.796 8.53459 116.588 7.98742 116.173 7.58491C115.77 7.18239 115.204 6.98113 114.475 6.98113C113.909 6.98113 113.399 7.12579 112.946 7.41509C112.494 7.69182 112.135 8.08176 111.871 8.58491C111.619 9.07547 111.494 9.65409 111.494 10.3208C111.494 11.0126 111.695 11.5597 112.097 11.9623C112.513 12.3648 113.085 12.566 113.814 12.566ZM115.833 14.8491L116.23 12.8302L116.89 9.81132L117.286 6.79245L117.701 4.69811H120.645L118.626 14.8491H115.833Z" fill="white"/>
<path d="M125.049 15C124.156 15 123.313 14.8994 122.521 14.6981C121.741 14.4969 121.137 14.2453 120.709 13.9434L121.841 11.8113C122.282 12.1006 122.816 12.3333 123.445 12.5094C124.087 12.6855 124.728 12.7736 125.37 12.7736C126.062 12.7736 126.565 12.6855 126.879 12.5094C127.194 12.3333 127.351 12.0943 127.351 11.7925C127.351 11.5535 127.219 11.3774 126.955 11.2642C126.69 11.1384 126.357 11.0377 125.955 10.9623C125.552 10.8868 125.118 10.7987 124.653 10.6981C124.2 10.5975 123.766 10.4591 123.351 10.283C122.948 10.0943 122.615 9.83019 122.351 9.49057C122.099 9.13836 121.973 8.67925 121.973 8.11321C121.973 7.34591 122.187 6.69811 122.615 6.16981C123.055 5.64151 123.659 5.23899 124.426 4.96226C125.206 4.68553 126.087 4.54717 127.068 4.54717C127.772 4.54717 128.458 4.62264 129.124 4.77358C129.791 4.92453 130.357 5.13208 130.823 5.39623L129.766 7.54717C129.288 7.24528 128.785 7.04403 128.256 6.9434C127.741 6.83019 127.244 6.77359 126.766 6.77359C126.074 6.77359 125.571 6.87421 125.256 7.07547C124.955 7.26415 124.804 7.49686 124.804 7.77358C124.804 8.01258 124.929 8.20126 125.181 8.33962C125.445 8.46541 125.778 8.57233 126.181 8.66038C126.584 8.73585 127.017 8.8239 127.483 8.92453C127.948 9.01258 128.382 9.15094 128.785 9.33962C129.187 9.51572 129.514 9.77358 129.766 10.1132C130.03 10.4403 130.162 10.8868 130.162 11.4528C130.162 12.2201 129.936 12.8742 129.483 13.4151C129.043 13.9434 128.439 14.3396 127.672 14.6038C126.904 14.8679 126.03 15 125.049 15Z" fill="white"/>
<path d="M135.073 15C134.179 15 133.337 14.8994 132.544 14.6981C131.764 14.4969 131.161 14.2453 130.733 13.9434L131.865 11.8113C132.305 12.1006 132.84 12.3333 133.469 12.5094C134.11 12.6855 134.752 12.7736 135.393 12.7736C136.085 12.7736 136.588 12.6855 136.903 12.5094C137.217 12.3333 137.374 12.0943 137.374 11.7925C137.374 11.5535 137.242 11.3774 136.978 11.2642C136.714 11.1384 136.381 11.0377 135.978 10.9623C135.576 10.8868 135.142 10.7987 134.676 10.6981C134.223 10.5975 133.79 10.4591 133.374 10.283C132.972 10.0943 132.639 9.83019 132.374 9.49057C132.123 9.13836 131.997 8.67925 131.997 8.11321C131.997 7.34591 132.211 6.69811 132.639 6.16981C133.079 5.64151 133.683 5.23899 134.45 4.96226C135.23 4.68553 136.11 4.54717 137.091 4.54717C137.796 4.54717 138.481 4.62264 139.148 4.77358C139.815 4.92453 140.381 5.13208 140.846 5.39623L139.789 7.54717C139.312 7.24528 138.808 7.04403 138.28 6.9434C137.764 6.83019 137.267 6.77359 136.79 6.77359C136.098 6.77359 135.595 6.87421 135.28 7.07547C134.978 7.26415 134.827 7.49686 134.827 7.77358C134.827 8.01258 134.953 8.20126 135.205 8.33962C135.469 8.46541 135.802 8.57233 136.205 8.66038C136.607 8.73585 137.041 8.8239 137.506 8.92453C137.972 9.01258 138.406 9.15094 138.808 9.33962C139.211 9.51572 139.538 9.77358 139.789 10.1132C140.054 10.4403 140.186 10.8868 140.186 11.4528C140.186 12.2201 139.959 12.8742 139.506 13.4151C139.066 13.9434 138.462 14.3396 137.695 14.6038C136.928 14.8679 136.054 15 135.073 15Z" fill="white"/>
<path d="M7.83582 11.0821C7.83582 13.2459 6.08171 15 3.91791 15C1.75411 15 0 13.2459 0 11.0821C0 8.91829 1.75411 7.16418 3.91791 7.16418C6.08171 7.16418 7.83582 8.91829 7.83582 11.0821Z" fill="#0062C5"/>
<path fill-rule="evenodd" clip-rule="evenodd" d="M11.6418 7.83582V7.83425C9.52975 7.775 7.83582 6.04427 7.83582 3.91791C7.83582 1.75411 9.58993 0 11.7537 0C11.8158 0 11.8776 0.00144506 11.939 0.00430338L12.4254 0.00430761V0L12.5654 0.00430883L15.4853 0.00433427C16.3143 0.0043414 17.1293 0.217712 17.8519 0.623914C18.5771 1.03154 19.1847 1.61956 19.6159 2.33099L20.3933 3.61382L21.0008 4.63781C21.4245 5.35181 22.0139 5.95323 22.7192 6.39115C23.5375 6.89924 24.4816 7.16847 25.4448 7.16847L28.5834 7.16848C28.6448 7.16562 28.7066 7.16418 28.7687 7.16418C30.9325 7.16418 32.6866 8.91829 32.6866 11.0821C32.6866 13.2459 30.9325 15 28.7687 15C27.1965 15 25.8407 14.074 25.2167 12.7377L23.558 9.68897C23.3474 9.30191 23.0663 8.95761 22.7293 8.67378C22.3749 8.37537 21.959 8.14741 21.5174 8.00684C21.1653 7.89478 20.7932 7.83608 20.4239 7.83582C20.4231 7.83582 20.4223 7.83582 20.4215 7.83582L11.6418 7.83582ZM24.934 11.9838L24.9723 12.0543C24.9701 12.0456 24.9679 12.0369 24.9657 12.0281L24.9627 12.0336L24.934 11.9838ZM19.5673 2.46685L19.5201 2.38901C19.481 2.32446 19.4404 2.26095 19.3984 2.19853L19.5673 2.46685ZM16.873 0.324991C16.749 0.286836 16.6235 0.25381 16.4968 0.225997L16.873 0.324991Z" fill="#0062C5"/>
</svg>
