<svg class="hidden">
  <symbol xmlns="http://www.w3.org/2000/svg" viewBox="0 0 20 20" id="calendar">
    <path d="M1 7H19M5 1V3M15 1V3M4 10H6M9 10H11M14 10H16M4 13H6M9 13H11M14 13H16M4 16H6M9 16H11M14 16H16M4.2 19H15.8C16.9201 19 17.4802 19 17.908 18.782C18.2843 18.5903 18.5903 18.2843 18.782 17.908C19 17.4802 19 16.9201 19 15.8V6.2C19 5.07989 19 4.51984 18.782 4.09202C18.5903 3.71569 18.2843 3.40973 17.908 3.21799C17.4802 3 16.9201 3 15.8 3H4.2C3.0799 3 2.51984 3 2.09202 3.21799C1.71569 3.40973 1.40973 3.71569 1.21799 4.09202C1 4.51984 1 5.07989 1 6.2V15.8C1 16.9201 1 17.4802 1.21799 17.908C1.40973 18.2843 1.71569 18.5903 2.09202 18.782C2.51984 19 3.07989 19 4.2 19Z" stroke-linecap="round" fill="none"/>
  </symbol>

  <symbol xmlns="http://www.w3.org/2000/svg" viewBox="0 0 17 17" id="chassis">
    <path d="M13.0156 1.99219V2.32422H9.65005C9.42035 1.92734 8.99156 1.66016 8.5 1.66016C8.00844 1.66016 7.57965 1.92734 7.34995 2.32422H3.98438V1.99219C3.98438 1.6254 3.6871 1.32812 3.32031 1.32812C2.95352 1.32812 2.65625 1.6254 2.65625 1.99219V3.98438C2.65625 4.35052 2.35833 4.64844 1.99219 4.64844C1.62605 4.64844 1.32813 4.35052 1.32813 3.98438V1.99219C1.32813 1.62605 1.62605 1.32812 1.99219 1.32812C2.35898 1.32812 2.65625 1.03085 2.65625 0.664062C2.65625 0.297272 2.35898 0 1.99219 0C0.893631 0 0 0.893631 0 1.99219L0 3.98438C0 5.08293 0.893631 5.97656 1.99219 5.97656C3.09074 5.97656 3.98438 5.08293 3.98438 3.98438V3.65234H7.34995C7.46655 3.85377 7.63451 4.02173 7.83594 4.13833L7.83594 12.8617C7.62349 12.9848 7.44801 13.1645 7.33102 13.3809H3.98438L3.98438 13.0156C3.98438 12.6488 3.6871 12.3516 3.32031 12.3516C2.95352 12.3516 2.65625 12.6488 2.65625 13.0156L2.65625 15.0078C2.65625 15.374 2.35833 15.6719 1.99219 15.6719C1.62605 15.6719 1.32812 15.374 1.32813 15.0078V13.0156C1.32813 12.6495 1.62605 12.3516 1.99219 12.3516C2.35898 12.3516 2.65625 12.0543 2.65625 11.6875C2.65625 11.3207 2.35898 11.0234 1.99219 11.0234C0.893631 11.0234 0 11.9171 0 13.0156L0 15.0078C0 16.1064 0.893631 17 1.99219 17C3.09074 17 3.98438 16.1064 3.98438 15.0078V14.709H7.36967C7.60365 15.0874 8.02232 15.3398 8.5 15.3398C8.97768 15.3398 9.39635 15.0874 9.63033 14.709H13.0156V15.0078C13.0156 16.1064 13.9093 17 15.0078 17C16.1064 17 17 16.1064 17 15.0078V13.0156C17 12.6488 16.7027 12.3516 16.3359 12.3516C15.9691 12.3516 15.6719 12.6488 15.6719 13.0156V15.0078C15.6719 15.374 15.374 15.6719 15.0078 15.6719C14.6417 15.6719 14.3438 15.374 14.3438 15.0078V13.0156C14.3438 12.6495 14.6417 12.3516 15.0078 12.3516C15.3746 12.3516 15.6719 12.0543 15.6719 11.6875C15.6719 11.3207 15.3746 11.0234 15.0078 11.0234C13.9093 11.0234 13.0156 11.9171 13.0156 13.0156V13.3809H9.66898C9.55199 13.1645 9.37651 12.9846 9.16406 12.8617V4.13833C9.36549 4.02173 9.53345 3.85377 9.65005 3.65234H13.0156V3.98438C13.0156 5.08293 13.9093 5.97656 15.0078 5.97656C16.1064 5.97656 17 5.08293 17 3.98438V1.99219C17 1.6254 16.7027 1.32813 16.3359 1.32813C15.9691 1.32813 15.6719 1.6254 15.6719 1.99219L15.6719 3.98438C15.6719 4.35052 15.374 4.64844 15.0078 4.64844C14.6417 4.64844 14.3438 4.35052 14.3438 3.98438L14.3438 1.99219C14.3438 1.62605 14.6417 1.32813 15.0078 1.32813C15.3746 1.32813 15.6719 1.03085 15.6719 0.664062C15.6719 0.297272 15.3746 0 15.0078 0C13.9093 0 13.0156 0.893631 13.0156 1.99219Z" />
  </symbol>

  <symbol xmlns="http://www.w3.org/2000/svg" viewBox="0 0 19 18" id="column">
    <path d="M18.2949 6.35855L16.56 5.49108C16.239 5.33494 15.84 5.45639 15.6839 5.77735C15.519 6.10699 15.6492 6.49735 15.9701 6.65349L17.3494 7.3388V11.494L14.0964 11.5027V2.60241C14.0964 0.86747 12.934 0 11.494 0H4.55422C3.11422 0 1.95181 0.86747 1.95181 2.60241V16.6988H0.650602C0.29494 16.6988 0 16.9937 0 17.3494C0 17.7051 0.29494 18 0.650602 18H15.3976C15.7533 18 16.0482 17.7051 16.0482 17.3494C16.0482 16.9937 15.7533 16.6988 15.3976 16.6988H14.0964V12.8039L18 12.7952C18.3643 12.7952 18.6506 12.5002 18.6506 12.1446V6.93976C18.6506 6.69687 18.5118 6.47133 18.2949 6.35855ZM4.12048 4.24193C4.12048 3.03614 4.85783 2.60241 5.76 2.60241H10.2969C11.1904 2.60241 11.9277 3.03614 11.9277 4.24193V5.30892C11.9277 6.50602 11.1904 6.93976 10.2882 6.93976H5.76C4.85783 6.93976 4.12048 6.50602 4.12048 5.30024V4.24193ZM4.55422 8.89157H7.15663C7.51229 8.89157 7.80723 9.18651 7.80723 9.54217C7.80723 9.89783 7.51229 10.1928 7.15663 10.1928H4.55422C4.19855 10.1928 3.90361 9.89783 3.90361 9.54217C3.90361 9.18651 4.19855 8.89157 4.55422 8.89157Z"/>
  </symbol>

  <symbol xmlns="http://www.w3.org/2000/svg" viewBox="0 0 20 20" id="speedometer">
    <path d="M2.51555 5C1.55827 6.4301 1 8.1499 1 10C1 14.9706 5.02944 19 10 19C14.9706 19 19 14.9706 19 10C19 5.02944 14.9706 1 10 1V4M10 10L6 6" stroke="#686868" stroke-width="2" stroke-linecap="round" stroke-linejoin="round" fill="none"/>
  </symbol>

  <symbol xmlns="http://www.w3.org/2000/svg" viewBox="0 0 18 18" id="transfers">
    <path d="M0 1.73493C0 0.776755 0.776755 0 1.73493 0C2.69311 0 3.46986 0.776755 3.46986 1.73493C3.46986 2.46303 3.02135 3.08638 2.38553 3.34375V8.02406H8.02406V3.34375C7.38821 3.08638 6.93973 2.46303 6.93973 1.73493C6.93973 0.776755 7.71646 0 8.67466 0C9.63286 0 10.4096 0.776755 10.4096 1.73493C10.4096 2.46303 9.96111 3.08638 9.32526 3.34375V8.02406H12.1445C12.9808 8.02406 13.5425 8.02267 13.9615 7.96637C14.3619 7.91251 14.5332 7.81951 14.6462 7.70648C14.7592 7.59345 14.8522 7.42213 14.9061 7.02179C14.9624 6.60278 14.9638 6.04104 14.9638 5.2048V3.34375C14.3279 3.08638 13.8795 2.46303 13.8795 1.73493C13.8795 0.776755 14.6562 0 15.6144 0C16.5726 0 17.3493 0.776755 17.3493 1.73493C17.3493 2.46303 16.9008 3.08638 16.265 3.34375V5.2499C16.265 6.02931 16.2651 6.67923 16.1957 7.1952C16.1225 7.73979 15.9614 8.23147 15.5662 8.62652C15.1712 9.02165 14.6795 9.18274 14.1349 9.25595C13.619 9.32535 12.9691 9.32526 12.1896 9.32526H9.32526V14.0056C9.96111 14.263 10.4096 14.8863 10.4096 15.6144C10.4096 16.5726 9.63286 17.3493 8.67466 17.3493C7.71646 17.3493 6.93973 16.5726 6.93973 15.6144C6.93973 14.8863 7.38821 14.263 8.02406 14.0056V9.32526H2.38553V14.0056C3.02135 14.263 3.46986 14.8863 3.46986 15.6144C3.46986 16.5726 2.69311 17.3493 1.73493 17.3493C0.776755 17.3493 0 16.5726 0 15.6144C0 14.8863 0.448515 14.263 1.08433 14.0056V3.34375C0.448515 3.08638 0 2.46303 0 1.73493Z"/>
    <path fill-rule="evenodd" clip-rule="evenodd" d="M13.2288 11.2766C13.2288 10.9173 13.5201 10.626 13.8794 10.626H15.8621C17.0553 10.626 17.9998 11.6096 17.9998 12.7946C17.9998 13.7302 17.4111 14.5403 16.576 14.8399L17.9041 17.0091C18.0917 17.3155 17.9954 17.7161 17.6889 17.9037C17.3825 18.0913 16.9819 17.995 16.7944 17.6885L15.1258 14.9633H14.53V17.3488C14.53 17.7081 14.2387 17.9994 13.8794 17.9994C13.5201 17.9994 13.2288 17.7081 13.2288 17.3488V11.2766ZM14.53 13.6621H15.8621C16.3116 13.6621 16.6986 13.2864 16.6986 12.7946C16.6986 12.3029 16.3116 11.9272 15.8621 11.9272H14.53V13.6621Z"/>
  </symbol>

  <symbol xmlns="http://www.w3.org/2000/svg" viewBox="0 0 24 21" id="transfers-2">
    <path d="M15.1682 9.08821L12.8798 12.7256C12.7862 12.8554 12.6723 12.9692 12.5426 13.0628C12.2293 13.2814 11.8425 13.3675 11.4662 13.3027C11.0898 13.2378 10.7542 13.0271 10.5322 12.7163C10.3102 12.4055 10.2197 12.0197 10.2804 11.6426C10.3411 11.2655 10.5481 10.9276 10.8564 10.7022L14.4937 8.41373C14.5764 8.3561 14.6748 8.3252 14.7756 8.3252C14.8764 8.3252 14.9747 8.3561 15.0574 8.41373C15.1613 8.4887 15.2312 8.60173 15.252 8.72811C15.2727 8.8545 15.2426 8.98396 15.1682 9.08821Z" fill="#686868"/>
    <path d="M11.7917 1C5.8322 1 1.00001 5.82737 1.00001 11.7869C0.996355 14.4236 1.96165 16.9697 3.71239 18.9412C3.76539 18.9991 3.81357 19.0569 3.86656 19.1099C3.98057 19.2333 4.11896 19.3317 4.27298 19.3988C4.427 19.466 4.59329 19.5004 4.76131 19.5C4.92933 19.4995 5.09543 19.4642 5.24908 19.3962C5.40274 19.3282 5.5406 19.2291 5.65394 19.105C6.43514 18.2561 7.38396 17.5784 8.44043 17.1149C9.4969 16.6513 10.638 16.412 11.7917 16.412C12.9454 16.412 14.0866 16.6513 15.143 17.1149C16.1995 17.5784 17.1483 18.2561 17.9295 19.105C18.0429 19.2291 18.1807 19.3282 18.3344 19.3962C18.488 19.4642 18.6541 19.4995 18.8222 19.5C18.9902 19.5004 19.1565 19.466 19.3105 19.3988C19.4645 19.3317 19.6029 19.2333 19.7169 19.1099L19.8711 18.9412C21.6218 16.9697 22.5871 14.4236 22.5835 11.7869C22.5835 5.82737 17.7513 1 11.7917 1Z" stroke="#686868" stroke-width="1.5" stroke-linecap="round" stroke-linejoin="round" fill="none"/>
    <path d="M11.7922 4.08301V5.62468" stroke="#686868" stroke-width="1.5" stroke-miterlimit="10" stroke-linecap="round"/>
    <path d="M19.4994 11.792H17.9578" stroke="#686868" stroke-width="1.5" stroke-miterlimit="10" stroke-linecap="round"/>
    <path d="M5.62444 11.792H4.08276" stroke="#686868" stroke-width="1.5" stroke-miterlimit="10" stroke-linecap="round"/>
    <path d="M7.43059 7.43107L6.34033 6.34082" stroke="#686868" stroke-width="1.5" stroke-miterlimit="10" stroke-linecap="round"/>
    <path d="M16.1521 7.43107L17.2424 6.34082" stroke="#686868" stroke-width="1.5" stroke-miterlimit="10" stroke-linecap="round"/>
  </symbol>

  <symbol xmlns="http://www.w3.org/2000/svg" viewBox="0 0 18 18" id="volume">
    <path d="M25.2852 5.47188L25.0367 5.05597H20.6624V7.07973H20.2247V4.14511H17.9577L16.5184 2.86888H14.1383V1.708H14.9039V0H8.83601V1.708H9.60154V2.86888H7.12361L5.68431 4.14511H2.85379V4.99914V8.38721H1.708V6.20734H0V12.2752H1.708V10.0953H2.85379V13.4833V14.3374H7.12361L10.1267 17H20.2247V14.0105H20.6624V16.0343H25.0367L25.2852 15.6183C25.3777 15.4635 26.1895 14.0052 26.1895 10.5451C26.1895 7.085 25.3778 5.62677 25.2852 5.47188ZM11.3096 1.7081H12.4303V2.86899H11.3096V1.7081ZM23.9863 14.3263H22.3704V12.3025H18.5167V15.2919H10.7749L7.7718 12.6293H4.56184V5.85317H6.33256L7.77186 4.57693H15.8702L17.3095 5.85317H18.5167V8.78778H22.3704V6.76402H23.9863C24.1844 7.34643 24.4815 8.55207 24.4815 10.5452C24.4816 12.5383 24.1845 13.7438 23.9863 14.3263Z"/>
  </symbol>

  <symbol xmlns="http://www.w3.org/2000/svg" viewBox="0 0 18 18" id="profile">
    <path fill-rule="evenodd" clip-rule="evenodd" d="M14.9063 16.2H3.09436C2.45861 16.2 1.98914 15.5727 2.22892 14.9958C3.34149 12.3282 5.95524 10.8 8.99987 10.8C12.0454 10.8 14.6592 12.3282 15.7717 14.9958C16.0115 15.5727 15.5421 16.2 14.9063 16.2ZM5.325 5.39999C5.325 3.41459 6.9741 1.79999 8.99987 1.79999C11.0266 1.79999 12.6747 3.41459 12.6747 5.39999C12.6747 7.38539 11.0266 8.99999 8.99987 8.99999C6.9741 8.99999 5.325 7.38539 5.325 5.39999ZM17.9601 15.8724C17.2922 12.8493 15.2031 10.6182 12.4533 9.60567C13.9104 8.45637 14.7602 6.59784 14.4479 4.56294C14.0859 2.20224 12.0813 0.313179 9.66135 0.0377792C6.3209 -0.342921 3.48757 2.20409 3.48757 5.39999C3.48757 7.10099 4.29237 8.61657 5.54733 9.60567C2.79669 10.6182 0.708448 12.8493 0.0396216 15.8724C-0.20292 16.9713 0.701099 18 1.84858 18H16.1512C17.2996 18 18.2036 16.9713 17.9601 15.8724Z" />
  </symbol>

  <symbol xmlns="http://www.w3.org/2000/svg" viewBox="0 0 384 384" id="tel">
    <path d="M353.188 252.052c-23.51 0-46.594-3.677-68.469-10.906-10.719-3.656-23.896-.302-30.438 6.417l-43.177 32.594c-50.073-26.729-80.917-57.563-107.281-107.26l31.635-42.052c8.219-8.208 11.167-20.198 7.635-31.448-7.26-21.99-10.948-45.063-10.948-68.583C132.146 13.823 118.323 0 101.333 0h-70.52C13.823 0 0 13.823 0 30.813 0 225.563 158.438 384 353.188 384c16.99 0 30.813-13.823 30.813-30.813v-70.323c-.001-16.989-13.824-30.812-30.813-30.812z"></path>
  </symbol>

  <symbol xmlns="http://www.w3.org/2000/svg" viewBox="0 0 19 18" id="arrow">
    <path d="M2 15.9828L17 1.5M17 1.5V16.5M17 1.5H2" stroke-width="3"></path>
  </symbol>

  <symbol xmlns="http://www.w3.org/2000/svg" viewBox="0 0 141 15" id="logo">
    <path d="M44.6942 7.58491H51.0526L50.5432 10.0377H44.2036L44.6942 7.58491ZM43.4866 14.8491H40.4111L43.0526 1.64151H53.0338L52.5243 4.09434H45.6187L43.4866 14.8491Z" fill="white"/>
    <path d="M52.2729 14.8491L54.2917 4.69811H57.2163L55.1974 14.8491H52.2729ZM56.254 3.28302C55.7383 3.28302 55.3232 3.13836 55.0087 2.84906C54.6942 2.54717 54.537 2.18239 54.537 1.75472C54.537 1.25157 54.7131 0.836478 55.0653 0.509434C55.4301 0.169811 55.9018 0 56.4804 0C56.9961 0 57.4112 0.144654 57.7257 0.433962C58.0527 0.710692 58.2163 1.0566 58.2163 1.4717C58.2163 2.01258 58.0339 2.45283 57.6691 2.79245C57.3169 3.1195 56.8452 3.28302 56.254 3.28302Z" fill="white"/>
    <path d="M57.9296 14.8491L59.9484 4.69811H62.7409L62.156 7.58491L61.8918 6.75472C62.3446 5.93711 62.9358 5.36478 63.6654 5.03774C64.395 4.71069 65.2692 4.54717 66.288 4.54717L65.7597 7.26415C65.634 7.25157 65.5145 7.24528 65.4013 7.24528C65.3006 7.2327 65.1937 7.22642 65.0805 7.22642C64.2126 7.22642 63.5019 7.44025 62.9484 7.86793C62.4075 8.2956 62.0428 8.98742 61.8541 9.9434L60.873 14.8491H57.9296Z" fill="white"/>
    <path d="M69.7534 15C68.8603 15 68.0176 14.8994 67.2251 14.6981C66.4452 14.4969 65.8415 14.2453 65.4138 13.9434L66.5459 11.8113C66.9861 12.1006 67.5207 12.3333 68.1496 12.5094C68.7911 12.6855 69.4326 12.7736 70.0742 12.7736C70.766 12.7736 71.2691 12.6855 71.5836 12.5094C71.8981 12.3333 72.0553 12.0943 72.0553 11.7925C72.0553 11.5535 71.9232 11.3774 71.6591 11.2642C71.3949 11.1384 71.0616 11.0377 70.6591 10.9623C70.2565 10.8868 69.8226 10.7987 69.3572 10.6981C68.9043 10.5975 68.4704 10.4591 68.0553 10.283C67.6528 10.0943 67.3194 9.83019 67.0553 9.49057C66.8037 9.13836 66.6779 8.67925 66.6779 8.11321C66.6779 7.34591 66.8918 6.69811 67.3194 6.16981C67.7597 5.64151 68.3635 5.23899 69.1308 4.96226C69.9106 4.68553 70.7911 4.54717 71.7723 4.54717C72.4767 4.54717 73.1622 4.62264 73.8289 4.77358C74.4955 4.92453 75.0616 5.13208 75.527 5.39623L74.4704 7.54717C73.9924 7.24528 73.4893 7.04403 72.9609 6.9434C72.4452 6.83019 71.9484 6.77359 71.4704 6.77359C70.7786 6.77359 70.2754 6.87421 69.9609 7.07547C69.6591 7.26415 69.5081 7.49686 69.5081 7.77358C69.5081 8.01258 69.6339 8.20126 69.8855 8.33962C70.1496 8.46541 70.483 8.57233 70.8855 8.66038C71.288 8.73585 71.722 8.8239 72.1874 8.92453C72.6528 9.01258 73.0867 9.15094 73.4892 9.33962C73.8918 9.51572 74.2188 9.77358 74.4704 10.1132C74.7345 10.4403 74.8666 10.8868 74.8666 11.4528C74.8666 12.2201 74.6402 12.8742 74.1874 13.4151C73.7471 13.9434 73.1433 14.3396 72.376 14.6038C71.6087 14.8679 70.7345 15 69.7534 15Z" fill="white"/>
    <path d="M80.2109 15C79.4814 15 78.8587 14.8553 78.343 14.566C77.8273 14.2642 77.4562 13.8365 77.2298 13.283C77.016 12.717 76.9845 12.0503 77.1355 11.283L78.8902 2.45283H81.8336L80.0789 11.2642C80.0034 11.6918 80.0474 12.0314 80.2109 12.283C80.3745 12.5346 80.6764 12.6604 81.1166 12.6604C81.3179 12.6604 81.5191 12.6289 81.7204 12.566C81.9342 12.5031 82.1292 12.4151 82.3053 12.3019L82.7392 14.3962C82.3745 14.6226 81.972 14.7799 81.5317 14.8679C81.0914 14.956 80.6512 15 80.2109 15ZM76.3808 7.18868L76.8336 4.92453H83.8713L83.4185 7.18868H76.3808Z" fill="white"/>
    <path d="M84.528 10.717L84.9997 8.35849H90.3393L89.8676 10.717H84.528Z" fill="white"/>
    <path d="M96.9149 15C95.8709 15 94.959 14.8113 94.1791 14.434C93.4118 14.0566 92.8143 13.5283 92.3866 12.8491C91.959 12.1698 91.7451 11.3711 91.7451 10.4528C91.7451 9.32075 92.0093 8.31447 92.5376 7.43396C93.0659 6.54088 93.7955 5.83648 94.7263 5.32076C95.6571 4.80503 96.7263 4.54717 97.9338 4.54717C99.0156 4.54717 99.9527 4.77359 100.745 5.22641C101.538 5.66667 102.122 6.2956 102.5 7.11321L100.009 8.35849C99.7955 7.8805 99.4936 7.53459 99.1036 7.32076C98.7263 7.09434 98.2734 6.98113 97.7451 6.98113C97.1665 6.98113 96.6508 7.12579 96.198 7.41509C95.7451 7.69182 95.3866 8.08176 95.1225 8.58491C94.8583 9.07547 94.7263 9.6478 94.7263 10.3019C94.7263 10.9937 94.9275 11.5472 95.33 11.9623C95.7451 12.3648 96.33 12.566 97.0848 12.566C97.6005 12.566 98.0722 12.4591 98.4999 12.2453C98.9275 12.0189 99.286 11.673 99.5753 11.2075L101.745 12.566C101.267 13.3333 100.6 13.9308 99.7451 14.3585C98.9024 14.7862 97.959 15 96.9149 15Z" fill="white"/>
    <path d="M102.649 14.8491L105.441 0.849057H108.385L105.592 14.8491H102.649Z" fill="white"/>
    <path d="M112.909 15C112.129 15 111.406 14.8239 110.739 14.4717C110.072 14.1069 109.538 13.5849 109.135 12.9057C108.733 12.2264 108.531 11.4088 108.531 10.4528C108.531 9.59748 108.67 8.81132 108.946 8.09434C109.236 7.37736 109.638 6.75472 110.154 6.22642C110.67 5.69811 111.267 5.28931 111.946 5C112.626 4.69811 113.355 4.54717 114.135 4.54717C114.978 4.54717 115.701 4.7044 116.305 5.01887C116.909 5.33333 117.355 5.8239 117.645 6.49057C117.947 7.14465 118.053 7.99371 117.965 9.03774C117.902 10.2327 117.657 11.283 117.23 12.1887C116.802 13.0818 116.223 13.7736 115.494 14.2642C114.777 14.7547 113.915 15 112.909 15ZM113.814 12.566C114.393 12.566 114.902 12.4277 115.343 12.1509C115.796 11.8616 116.148 11.4717 116.399 10.9811C116.663 10.478 116.796 9.89308 116.796 9.22641C116.796 8.53459 116.588 7.98742 116.173 7.58491C115.77 7.18239 115.204 6.98113 114.475 6.98113C113.909 6.98113 113.399 7.12579 112.946 7.41509C112.494 7.69182 112.135 8.08176 111.871 8.58491C111.619 9.07547 111.494 9.65409 111.494 10.3208C111.494 11.0126 111.695 11.5597 112.097 11.9623C112.513 12.3648 113.085 12.566 113.814 12.566ZM115.833 14.8491L116.23 12.8302L116.89 9.81132L117.286 6.79245L117.701 4.69811H120.645L118.626 14.8491H115.833Z" fill="white"/>
    <path d="M125.049 15C124.156 15 123.313 14.8994 122.521 14.6981C121.741 14.4969 121.137 14.2453 120.709 13.9434L121.841 11.8113C122.282 12.1006 122.816 12.3333 123.445 12.5094C124.087 12.6855 124.728 12.7736 125.37 12.7736C126.062 12.7736 126.565 12.6855 126.879 12.5094C127.194 12.3333 127.351 12.0943 127.351 11.7925C127.351 11.5535 127.219 11.3774 126.955 11.2642C126.69 11.1384 126.357 11.0377 125.955 10.9623C125.552 10.8868 125.118 10.7987 124.653 10.6981C124.2 10.5975 123.766 10.4591 123.351 10.283C122.948 10.0943 122.615 9.83019 122.351 9.49057C122.099 9.13836 121.973 8.67925 121.973 8.11321C121.973 7.34591 122.187 6.69811 122.615 6.16981C123.055 5.64151 123.659 5.23899 124.426 4.96226C125.206 4.68553 126.087 4.54717 127.068 4.54717C127.772 4.54717 128.458 4.62264 129.124 4.77358C129.791 4.92453 130.357 5.13208 130.823 5.39623L129.766 7.54717C129.288 7.24528 128.785 7.04403 128.256 6.9434C127.741 6.83019 127.244 6.77359 126.766 6.77359C126.074 6.77359 125.571 6.87421 125.256 7.07547C124.955 7.26415 124.804 7.49686 124.804 7.77358C124.804 8.01258 124.929 8.20126 125.181 8.33962C125.445 8.46541 125.778 8.57233 126.181 8.66038C126.584 8.73585 127.017 8.8239 127.483 8.92453C127.948 9.01258 128.382 9.15094 128.785 9.33962C129.187 9.51572 129.514 9.77358 129.766 10.1132C130.03 10.4403 130.162 10.8868 130.162 11.4528C130.162 12.2201 129.936 12.8742 129.483 13.4151C129.043 13.9434 128.439 14.3396 127.672 14.6038C126.904 14.8679 126.03 15 125.049 15Z" fill="white"/>
    <path d="M135.073 15C134.179 15 133.337 14.8994 132.544 14.6981C131.764 14.4969 131.161 14.2453 130.733 13.9434L131.865 11.8113C132.305 12.1006 132.84 12.3333 133.469 12.5094C134.11 12.6855 134.752 12.7736 135.393 12.7736C136.085 12.7736 136.588 12.6855 136.903 12.5094C137.217 12.3333 137.374 12.0943 137.374 11.7925C137.374 11.5535 137.242 11.3774 136.978 11.2642C136.714 11.1384 136.381 11.0377 135.978 10.9623C135.576 10.8868 135.142 10.7987 134.676 10.6981C134.223 10.5975 133.79 10.4591 133.374 10.283C132.972 10.0943 132.639 9.83019 132.374 9.49057C132.123 9.13836 131.997 8.67925 131.997 8.11321C131.997 7.34591 132.211 6.69811 132.639 6.16981C133.079 5.64151 133.683 5.23899 134.45 4.96226C135.23 4.68553 136.11 4.54717 137.091 4.54717C137.796 4.54717 138.481 4.62264 139.148 4.77358C139.815 4.92453 140.381 5.13208 140.846 5.39623L139.789 7.54717C139.312 7.24528 138.808 7.04403 138.28 6.9434C137.764 6.83019 137.267 6.77359 136.79 6.77359C136.098 6.77359 135.595 6.87421 135.28 7.07547C134.978 7.26415 134.827 7.49686 134.827 7.77358C134.827 8.01258 134.953 8.20126 135.205 8.33962C135.469 8.46541 135.802 8.57233 136.205 8.66038C136.607 8.73585 137.041 8.8239 137.506 8.92453C137.972 9.01258 138.406 9.15094 138.808 9.33962C139.211 9.51572 139.538 9.77358 139.789 10.1132C140.054 10.4403 140.186 10.8868 140.186 11.4528C140.186 12.2201 139.959 12.8742 139.506 13.4151C139.066 13.9434 138.462 14.3396 137.695 14.6038C136.928 14.8679 136.054 15 135.073 15Z" fill="white"/>
    <path d="M7.83582 11.0821C7.83582 13.2459 6.08171 15 3.91791 15C1.75411 15 0 13.2459 0 11.0821C0 8.91829 1.75411 7.16418 3.91791 7.16418C6.08171 7.16418 7.83582 8.91829 7.83582 11.0821Z" fill="#0062C5"/>
    <path fill-rule="evenodd" clip-rule="evenodd" d="M11.6418 7.83582V7.83425C9.52975 7.775 7.83582 6.04427 7.83582 3.91791C7.83582 1.75411 9.58993 0 11.7537 0C11.8158 0 11.8776 0.00144506 11.939 0.00430338L12.4254 0.00430761V0L12.5654 0.00430883L15.4853 0.00433427C16.3143 0.0043414 17.1293 0.217712 17.8519 0.623914C18.5771 1.03154 19.1847 1.61956 19.6159 2.33099L20.3933 3.61382L21.0008 4.63781C21.4245 5.35181 22.0139 5.95323 22.7192 6.39115C23.5375 6.89924 24.4816 7.16847 25.4448 7.16847L28.5834 7.16848C28.6448 7.16562 28.7066 7.16418 28.7687 7.16418C30.9325 7.16418 32.6866 8.91829 32.6866 11.0821C32.6866 13.2459 30.9325 15 28.7687 15C27.1965 15 25.8407 14.074 25.2167 12.7377L23.558 9.68897C23.3474 9.30191 23.0663 8.95761 22.7293 8.67378C22.3749 8.37537 21.959 8.14741 21.5174 8.00684C21.1653 7.89478 20.7932 7.83608 20.4239 7.83582C20.4231 7.83582 20.4223 7.83582 20.4215 7.83582L11.6418 7.83582ZM24.934 11.9838L24.9723 12.0543C24.9701 12.0456 24.9679 12.0369 24.9657 12.0281L24.9627 12.0336L24.934 11.9838ZM19.5673 2.46685L19.5201 2.38901C19.481 2.32446 19.4404 2.26095 19.3984 2.19853L19.5673 2.46685ZM16.873 0.324991C16.749 0.286836 16.6235 0.25381 16.4968 0.225997L16.873 0.324991Z" fill="#0062C5"/>
  </symbol>
  <symbol xmlns="http://www.w3.org/2000/svg" viewBox="0 0 492.004 492.004" id="arrow-2">
    <path d="M484.14 226.886 306.46 49.202c-5.072-5.072-11.832-7.856-19.04-7.856-7.216 0-13.972 2.788-19.044 7.856l-16.132 16.136c-5.068 5.064-7.86 11.828-7.86 19.04 0 7.208 2.792 14.2 7.86 19.264L355.9 207.526H26.58C11.732 207.526 0 219.15 0 234.002v22.812c0 14.852 11.732 27.648 26.58 27.648h330.496L252.248 388.926c-5.068 5.072-7.86 11.652-7.86 18.864 0 7.204 2.792 13.88 7.86 18.948l16.132 16.084c5.072 5.072 11.828 7.836 19.044 7.836 7.208 0 13.968-2.8 19.04-7.872l177.68-177.68c5.084-5.088 7.88-11.88 7.86-19.1.016-7.244-2.776-14.04-7.864-19.12z"></path>
  </symbol>
</svg>
