<svg width="24" height="21" viewBox="0 0 24 21" fill="none" xmlns="http://www.w3.org/2000/svg">
<path d="M15.1682 9.08821L12.8798 12.7256C12.7862 12.8554 12.6723 12.9692 12.5426 13.0628C12.2293 13.2814 11.8425 13.3675 11.4662 13.3027C11.0898 13.2378 10.7542 13.0271 10.5322 12.7163C10.3102 12.4055 10.2197 12.0197 10.2804 11.6426C10.3411 11.2655 10.5481 10.9276 10.8564 10.7022L14.4937 8.41373C14.5764 8.3561 14.6748 8.3252 14.7756 8.3252C14.8764 8.3252 14.9747 8.3561 15.0574 8.41373C15.1613 8.4887 15.2312 8.60173 15.252 8.72811C15.2727 8.8545 15.2426 8.98396 15.1682 9.08821Z" fill="#686868"/>
<path d="M11.7917 1C5.8322 1 1.00001 5.82737 1.00001 11.7869C0.996355 14.4236 1.96165 16.9697 3.71239 18.9412C3.76539 18.9991 3.81357 19.0569 3.86656 19.1099C3.98057 19.2333 4.11896 19.3317 4.27298 19.3988C4.427 19.466 4.59329 19.5004 4.76131 19.5C4.92933 19.4995 5.09543 19.4642 5.24908 19.3962C5.40274 19.3282 5.5406 19.2291 5.65394 19.105C6.43514 18.2561 7.38396 17.5784 8.44043 17.1149C9.4969 16.6513 10.638 16.412 11.7917 16.412C12.9454 16.412 14.0866 16.6513 15.143 17.1149C16.1995 17.5784 17.1483 18.2561 17.9295 19.105C18.0429 19.2291 18.1807 19.3282 18.3344 19.3962C18.488 19.4642 18.6541 19.4995 18.8222 19.5C18.9902 19.5004 19.1565 19.466 19.3105 19.3988C19.4645 19.3317 19.6029 19.2333 19.7169 19.1099L19.8711 18.9412C21.6218 16.9697 22.5871 14.4236 22.5835 11.7869C22.5835 5.82737 17.7513 1 11.7917 1Z" stroke="#686868" stroke-width="1.5" stroke-linecap="round" stroke-linejoin="round"/>
<path d="M11.7922 4.08301V5.62468" stroke="#686868" stroke-width="1.5" stroke-miterlimit="10" stroke-linecap="round"/>
<path d="M19.4994 11.792H17.9578" stroke="#686868" stroke-width="1.5" stroke-miterlimit="10" stroke-linecap="round"/>
<path d="M5.62444 11.792H4.08276" stroke="#686868" stroke-width="1.5" stroke-miterlimit="10" stroke-linecap="round"/>
<path d="M7.43059 7.43107L6.34033 6.34082" stroke="#686868" stroke-width="1.5" stroke-miterlimit="10" stroke-linecap="round"/>
<path d="M16.1521 7.43107L17.2424 6.34082" stroke="#686868" stroke-width="1.5" stroke-miterlimit="10" stroke-linecap="round"/>
</svg>
