<svg width="18" height="18" viewBox="0 0 18 18" fill="none" xmlns="http://www.w3.org/2000/svg">
<path d="M0 1.73493C0 0.776755 0.776755 0 1.73493 0C2.69311 0 3.46986 0.776755 3.46986 1.73493C3.46986 2.46303 3.02135 3.08638 2.38553 3.34375V8.02406H8.02406V3.34375C7.38821 3.08638 6.93973 2.46303 6.93973 1.73493C6.93973 0.776755 7.71646 0 8.67466 0C9.63286 0 10.4096 0.776755 10.4096 1.73493C10.4096 2.46303 9.96111 3.08638 9.32526 3.34375V8.02406H12.1445C12.9808 8.02406 13.5425 8.02267 13.9615 7.96637C14.3619 7.91251 14.5332 7.81951 14.6462 7.70648C14.7592 7.59345 14.8522 7.42213 14.9061 7.02179C14.9624 6.60278 14.9638 6.04104 14.9638 5.2048V3.34375C14.3279 3.08638 13.8795 2.46303 13.8795 1.73493C13.8795 0.776755 14.6562 0 15.6144 0C16.5726 0 17.3493 0.776755 17.3493 1.73493C17.3493 2.46303 16.9008 3.08638 16.265 3.34375V5.2499C16.265 6.02931 16.2651 6.67923 16.1957 7.1952C16.1225 7.73979 15.9614 8.23147 15.5662 8.62652C15.1712 9.02165 14.6795 9.18274 14.1349 9.25595C13.619 9.32535 12.9691 9.32526 12.1896 9.32526H9.32526V14.0056C9.96111 14.263 10.4096 14.8863 10.4096 15.6144C10.4096 16.5726 9.63286 17.3493 8.67466 17.3493C7.71646 17.3493 6.93973 16.5726 6.93973 15.6144C6.93973 14.8863 7.38821 14.263 8.02406 14.0056V9.32526H2.38553V14.0056C3.02135 14.263 3.46986 14.8863 3.46986 15.6144C3.46986 16.5726 2.69311 17.3493 1.73493 17.3493C0.776755 17.3493 0 16.5726 0 15.6144C0 14.8863 0.448515 14.263 1.08433 14.0056V3.34375C0.448515 3.08638 0 2.46303 0 1.73493Z" fill="#686868"/>
<path fill-rule="evenodd" clip-rule="evenodd" d="M13.2288 11.2766C13.2288 10.9173 13.5201 10.626 13.8794 10.626H15.8621C17.0553 10.626 17.9998 11.6096 17.9998 12.7946C17.9998 13.7302 17.4111 14.5403 16.576 14.8399L17.9041 17.0091C18.0917 17.3155 17.9954 17.7161 17.6889 17.9037C17.3825 18.0913 16.9819 17.995 16.7944 17.6885L15.1258 14.9633H14.53V17.3488C14.53 17.7081 14.2387 17.9994 13.8794 17.9994C13.5201 17.9994 13.2288 17.7081 13.2288 17.3488V11.2766ZM14.53 13.6621H15.8621C16.3116 13.6621 16.6986 13.2864 16.6986 12.7946C16.6986 12.3029 16.3116 11.9272 15.8621 11.9272H14.53V13.6621Z" fill="#686868"/>
</svg>
