<svg width="17" height="17" viewBox="0 0 17 17" fill="none" xmlns="http://www.w3.org/2000/svg">
<path d="M13.0156 1.99219V2.32422H9.65005C9.42035 1.92734 8.99156 1.66016 8.5 1.66016C8.00844 1.66016 7.57965 1.92734 7.34995 2.32422H3.98438V1.99219C3.98438 1.6254 3.6871 1.32812 3.32031 1.32812C2.95352 1.32812 2.65625 1.6254 2.65625 1.99219V3.98438C2.65625 4.35052 2.35833 4.64844 1.99219 4.64844C1.62605 4.64844 1.32813 4.35052 1.32813 3.98438V1.99219C1.32813 1.62605 1.62605 1.32812 1.99219 1.32812C2.35898 1.32812 2.65625 1.03085 2.65625 0.664062C2.65625 0.297272 2.35898 0 1.99219 0C0.893631 0 0 0.893631 0 1.99219L0 3.98438C0 5.08293 0.893631 5.97656 1.99219 5.97656C3.09074 5.97656 3.98438 5.08293 3.98438 3.98438V3.65234H7.34995C7.46655 3.85377 7.63451 4.02173 7.83594 4.13833L7.83594 12.8617C7.62349 12.9848 7.44801 13.1645 7.33102 13.3809H3.98438L3.98438 13.0156C3.98438 12.6488 3.6871 12.3516 3.32031 12.3516C2.95352 12.3516 2.65625 12.6488 2.65625 13.0156L2.65625 15.0078C2.65625 15.374 2.35833 15.6719 1.99219 15.6719C1.62605 15.6719 1.32812 15.374 1.32813 15.0078V13.0156C1.32813 12.6495 1.62605 12.3516 1.99219 12.3516C2.35898 12.3516 2.65625 12.0543 2.65625 11.6875C2.65625 11.3207 2.35898 11.0234 1.99219 11.0234C0.893631 11.0234 0 11.9171 0 13.0156L0 15.0078C0 16.1064 0.893631 17 1.99219 17C3.09074 17 3.98438 16.1064 3.98438 15.0078V14.709H7.36967C7.60365 15.0874 8.02232 15.3398 8.5 15.3398C8.97768 15.3398 9.39635 15.0874 9.63033 14.709H13.0156V15.0078C13.0156 16.1064 13.9093 17 15.0078 17C16.1064 17 17 16.1064 17 15.0078V13.0156C17 12.6488 16.7027 12.3516 16.3359 12.3516C15.9691 12.3516 15.6719 12.6488 15.6719 13.0156V15.0078C15.6719 15.374 15.374 15.6719 15.0078 15.6719C14.6417 15.6719 14.3438 15.374 14.3438 15.0078V13.0156C14.3438 12.6495 14.6417 12.3516 15.0078 12.3516C15.3746 12.3516 15.6719 12.0543 15.6719 11.6875C15.6719 11.3207 15.3746 11.0234 15.0078 11.0234C13.9093 11.0234 13.0156 11.9171 13.0156 13.0156V13.3809H9.66898C9.55199 13.1645 9.37651 12.9846 9.16406 12.8617V4.13833C9.36549 4.02173 9.53345 3.85377 9.65005 3.65234H13.0156V3.98438C13.0156 5.08293 13.9093 5.97656 15.0078 5.97656C16.1064 5.97656 17 5.08293 17 3.98438V1.99219C17 1.6254 16.7027 1.32813 16.3359 1.32813C15.9691 1.32813 15.6719 1.6254 15.6719 1.99219L15.6719 3.98438C15.6719 4.35052 15.374 4.64844 15.0078 4.64844C14.6417 4.64844 14.3438 4.35052 14.3438 3.98438L14.3438 1.99219C14.3438 1.62605 14.6417 1.32813 15.0078 1.32813C15.3746 1.32813 15.6719 1.03085 15.6719 0.664062C15.6719 0.297272 15.3746 0 15.0078 0C13.9093 0 13.0156 0.893631 13.0156 1.99219Z" fill="#686868"/>
</svg>
