<svg width="27" height="17" viewBox="0 0 27 17" fill="none" xmlns="http://www.w3.org/2000/svg">
<path d="M25.2852 5.47188L25.0367 5.05597H20.6624V7.07973H20.2247V4.14511H17.9577L16.5184 2.86888H14.1383V1.708H14.9039V0H8.83601V1.708H9.60154V2.86888H7.12361L5.68431 4.14511H2.85379V4.99914V8.38721H1.708V6.20734H0V12.2752H1.708V10.0953H2.85379V13.4833V14.3374H7.12361L10.1267 17H20.2247V14.0105H20.6624V16.0343H25.0367L25.2852 15.6183C25.3777 15.4635 26.1895 14.0052 26.1895 10.5451C26.1895 7.085 25.3778 5.62677 25.2852 5.47188ZM11.3096 1.7081H12.4303V2.86899H11.3096V1.7081ZM23.9863 14.3263H22.3704V12.3025H18.5167V15.2919H10.7749L7.7718 12.6293H4.56184V5.85317H6.33256L7.77186 4.57693H15.8702L17.3095 5.85317H18.5167V8.78778H22.3704V6.76402H23.9863C24.1844 7.34643 24.4815 8.55207 24.4815 10.5452C24.4816 12.5383 24.1845 13.7438 23.9863 14.3263Z" fill="#686868"/>
</svg>
