<svg width="19" height="18" viewBox="0 0 19 18" fill="none" xmlns="http://www.w3.org/2000/svg">
<path d="M18.2949 6.35855L16.56 5.49108C16.239 5.33494 15.84 5.45639 15.6839 5.77735C15.519 6.10699 15.6492 6.49735 15.9701 6.65349L17.3494 7.3388V11.494L14.0964 11.5027V2.60241C14.0964 0.86747 12.934 0 11.494 0H4.55422C3.11422 0 1.95181 0.86747 1.95181 2.60241V16.6988H0.650602C0.29494 16.6988 0 16.9937 0 17.3494C0 17.7051 0.29494 18 0.650602 18H15.3976C15.7533 18 16.0482 17.7051 16.0482 17.3494C16.0482 16.9937 15.7533 16.6988 15.3976 16.6988H14.0964V12.8039L18 12.7952C18.3643 12.7952 18.6506 12.5002 18.6506 12.1446V6.93976C18.6506 6.69687 18.5118 6.47133 18.2949 6.35855ZM4.12048 4.24193C4.12048 3.03614 4.85783 2.60241 5.76 2.60241H10.2969C11.1904 2.60241 11.9277 3.03614 11.9277 4.24193V5.30892C11.9277 6.50602 11.1904 6.93976 10.2882 6.93976H5.76C4.85783 6.93976 4.12048 6.50602 4.12048 5.30024V4.24193ZM4.55422 8.89157H7.15663C7.51229 8.89157 7.80723 9.18651 7.80723 9.54217C7.80723 9.89783 7.51229 10.1928 7.15663 10.1928H4.55422C4.19855 10.1928 3.90361 9.89783 3.90361 9.54217C3.90361 9.18651 4.19855 8.89157 4.55422 8.89157Z" fill="#686868"/>
</svg>
